<svg xmlns="http://www.w3.org/2000/svg" viewBox="0 0 812 709.17"><defs><style>.cls-1,.cls-12,.cls-13,.cls-14,.cls-15,.cls-16,.cls-18,.cls-23,.cls-24{fill:none;stroke-miterlimit:10;}.cls-1{stroke:#1384c0;stroke-width:0.81px;stroke-dasharray:3.26 3.26;}.cls-2{font-size:19.49px;font-family:Corbel;}.cls-2,.cls-25{fill:#231f20;}.cls-3{font-size:19.49px;fill:#1384c0;}.cls-25,.cls-3{font-family:Corbel-Bold, Corbel;font-weight:700;}.cls-4{letter-spacing:-0.02em;}.cls-5{letter-spacing:-0.06em;}.cls-6{letter-spacing:-0.02em;}.cls-7{letter-spacing:-0.07em;}.cls-8{letter-spacing:-0.02em;}.cls-9{letter-spacing:-0.04em;}.cls-10{letter-spacing:-0.01em;}.cls-11{letter-spacing:-0.07em;}.cls-12{stroke:#87d300;}.cls-12,.cls-13,.cls-14,.cls-15,.cls-16,.cls-18{stroke-width:4.06px;}.cls-13{stroke:#ff9d1b;}.cls-14{stroke:#e1211c;}.cls-15{stroke:#00933a;}.cls-16{stroke:#09abb0;}.cls-17,.cls-22{fill:#fff;}.cls-18{stroke:#231f20;}.cls-19{letter-spacing:-0.04em;}.cls-20{letter-spacing:-0.02em;}.cls-21{letter-spacing:-0.04em;}.cls-22,.cls-23,.cls-24{opacity:0.75;}.cls-23,.cls-24{stroke:#e75318;}.cls-23{stroke-width:8.12px;}.cls-24{stroke-width:2.71px;}.cls-25{font-size:32.48px;}.cls-26{letter-spacing:-0.02em;}</style></defs><title>jld_hubmap</title><g id="Layer_2" data-name="Layer 2"><g id="Content"><circle class="cls-1" cx="409.64" cy="363.92" r="344.84"/><circle class="cls-1" cx="409.64" cy="363.92" r="206.74"/><circle class="cls-1" cx="409.64" cy="363.92" r="275.79"/><text class="cls-2" transform="translate(591.44 538.78)">Raffles Place</text><text class="cls-3" transform="translate(232.58 238.01) rotate(-45)">15 mins</text><text class="cls-3" transform="translate(182.06 194.47) rotate(-45)">30<tspan class="cls-4" x="19.54" y="0"> </tspan><tspan x="23.19" y="0">mins</tspan></text><text class="cls-3" transform="translate(128.36 149.43) rotate(-45)"><tspan xml:space="preserve">45  mins</tspan></text><text class="cls-2" transform="translate(38.35 300.82)">Nanyang </text><text class="cls-2" transform="translate(0 324.2)"><tspan class="cls-5">T</tspan><tspan x="9.59" y="0">echnological </tspan></text><text class="cls-2" transform="translate(29.64 347.59)">University </text><text class="cls-2" transform="translate(565.4 16.11)">Punggol </text><text class="cls-2" transform="translate(565.4 39.49)">Digital<tspan class="cls-6" x="53.29" y="0"> </tspan><tspan x="56.76" y="0">District</tspan></text><text class="cls-2" transform="translate(681.31 499.06)">Novena</text><text class="cls-2" transform="translate(183.18 563.56)">National<tspan class="cls-7" x="69.13" y="0"> </tspan><tspan x="71.68" y="0">University </tspan></text><text class="cls-2" transform="translate(234.06 586.95)">of<tspan class="cls-8" x="16.58" y="0"> </tspan><tspan x="20.02" y="0">Singapore</tspan></text><text class="cls-2" transform="translate(723.07 140.79)">Changi </text><text class="cls-2" transform="translate(723.07 164.17)">Airport</text><text class="cls-2" transform="translate(137.54 484.83)"><tspan class="cls-5">T</tspan><tspan x="9.59" y="0">uas </tspan><tspan class="cls-9" x="41" y="0">P</tspan><tspan x="51.26" y="0">ort</tspan></text><text class="cls-2" transform="translate(100.92 233.82)">Jurong</text><text class="cls-2" transform="translate(7.42 257.2)">Innovation<tspan class="cls-10" x="86.23" y="0"> </tspan><tspan x="89.86" y="0">District</tspan></text><text class="cls-2" transform="translate(367.57 579.5)">one-north</text><text class="cls-2" transform="translate(525.14 587.08)"><tspan class="cls-11">T</tspan><tspan x="9.4" y="0">anjong Pagar</tspan></text><text class="cls-2" transform="translate(613.12 561.09)">Marina Bay</text><text class="cls-2" transform="translate(739.58 449.09)">Paya </text><text class="cls-2" transform="translate(739.58 472.48)">Lebar</text><text class="cls-2" transform="translate(734.2 272.11)"><tspan class="cls-11">T</tspan><tspan x="9.4" y="0">ampines</tspan></text><line class="cls-12" x1="577.73" y1="63.33" x2="478.06" y2="241.6"/><line class="cls-13" x1="379.88" y1="541.17" x2="384.16" y2="515.92"/><line class="cls-14" x1="329.08" y1="149.39" x2="359.94" y2="232.57"/><line class="cls-12" x1="236.3" y1="478.71" x2="292.66" y2="441.32"/><line class="cls-15" x1="336.9" y1="502.11" x2="344.34" y2="488.15"/><line class="cls-13" x1="324.14" y1="525.24" x2="336.91" y2="502.02"/><line class="cls-15" x1="384.16" y1="515.92" x2="386.67" y2="501.14"/><line class="cls-13" x1="486.75" y1="582.58" x2="461.92" y2="512.81"/><line class="cls-15" x1="537.45" y1="549.07" x2="489.53" y2="479.53"/><line class="cls-14" x1="589.27" y1="554.88" x2="567.48" y2="531.36"/><line class="cls-15" x1="461.92" y1="512.81" x2="455.75" y2="495.46"/><line class="cls-15" x1="567.48" y1="531.36" x2="505.45" y2="464.4"/><line class="cls-14" x1="657.5" y1="491.82" x2="611.81" y2="468.24"/><line class="cls-15" x1="532.41" y1="296.53" x2="734.4" y2="185.31"/><line class="cls-16" x1="275.82" y1="322.48" x2="143.52" y2="281.02"/><line class="cls-16" x1="271.92" y1="340.24" x2="133.45" y2="317.08"/><path class="cls-17" d="M143.51,291.31A10.29,10.29,0,1,0,133.22,281a10.28,10.28,0,0,0,10.29,10.29"/><circle class="cls-18" cx="143.51" cy="281.02" r="10.29" transform="translate(-150.28 396.15) rotate(-84.35)"/><path class="cls-17" d="M577.73,73.62a10.29,10.29,0,1,0-10.29-10.29,10.29,10.29,0,0,0,10.29,10.29"/><circle class="cls-18" cx="577.73" cy="63.33" r="10.29" transform="translate(298.13 572.85) rotate(-67.5)"/><path class="cls-17" d="M324.14,535.53a10.29,10.29,0,1,0-10.29-10.29,10.29,10.29,0,0,0,10.29,10.29"/><circle class="cls-18" cx="324.14" cy="525.24" r="10.29" transform="translate(-93.48 70.78) rotate(-10.9)"/><path class="cls-17" d="M379.88,551.46a10.29,10.29,0,1,0-10.29-10.29,10.29,10.29,0,0,0,10.29,10.29"/><circle class="cls-18" cx="379.88" cy="541.17" r="10.29" transform="translate(-95.49 81.6) rotate(-10.9)"/><path class="cls-17" d="M657.5,502.11a10.29,10.29,0,1,0-10.29-10.29,10.29,10.29,0,0,0,10.29,10.29"/><circle class="cls-18" cx="657.5" cy="491.82" r="10.29" transform="translate(-160.37 419.12) rotate(-31.72)"/><path class="cls-17" d="M329.4,159.16a10.29,10.29,0,1,0-10.29-10.29,10.29,10.29,0,0,0,10.29,10.29"/><path class="cls-18" d="M329.4,159.16a10.29,10.29,0,1,0-10.29-10.29A10.29,10.29,0,0,0,329.4,159.16Z"/><text class="cls-2" transform="translate(251.37 101.65)"><tspan class="cls-19">W</tspan><tspan x="16.48" y="0">oodlands </tspan></text><text class="cls-2" transform="translate(213.69 125.04)"><tspan class="cls-20">R</tspan><tspan x="11.16" y="0">egional</tspan><tspan class="cls-21" x="70.45" y="0"> </tspan><tspan x="73.59" y="0">Centre</tspan></text><path class="cls-17" d="M485.7,592.49a10.29,10.29,0,1,0-10.29-10.29,10.29,10.29,0,0,0,10.29,10.29"/><circle class="cls-18" cx="485.7" cy="582.2" r="10.29" transform="translate(-209.09 278.67) rotate(-26.57)"/><text class="cls-2" transform="translate(473.38 620.52)">Harbourfront</text><path class="cls-17" d="M236.3,487.87A10.29,10.29,0,1,0,226,477.58a10.29,10.29,0,0,0,10.29,10.29"/><path class="cls-18" d="M236.3,487.87A10.29,10.29,0,1,0,226,477.58,10.29,10.29,0,0,0,236.3,487.87Z"/><path class="cls-17" d="M537.45,559.05a10.29,10.29,0,1,0-10.29-10.29,10.29,10.29,0,0,0,10.29,10.29"/><path class="cls-18" d="M537.45,559.05a10.29,10.29,0,1,0-10.29-10.29A10.29,10.29,0,0,0,537.45,559.05Z"/><path class="cls-17" d="M567.59,541.81a10.29,10.29,0,1,0-10.29-10.29,10.29,10.29,0,0,0,10.29,10.29"/><path class="cls-18" d="M567.59,541.81a10.29,10.29,0,1,0-10.29-10.29A10.29,10.29,0,0,0,567.59,541.81Z"/><path class="cls-17" d="M135.08,327.37a10.29,10.29,0,1,0-10.29-10.29,10.29,10.29,0,0,0,10.29,10.29"/><circle class="cls-18" cx="135.08" cy="317.08" r="10.29"/><path class="cls-17" d="M735.38,198.29A10.29,10.29,0,1,0,725.09,188a10.29,10.29,0,0,0,10.29,10.29"/><path class="cls-18" d="M735.38,198.29A10.29,10.29,0,1,0,725.09,188,10.29,10.29,0,0,0,735.38,198.29Z"/><path class="cls-17" d="M589.27,564.12A10.29,10.29,0,1,0,579,553.83a10.29,10.29,0,0,0,10.29,10.29"/><path class="cls-18" d="M589.27,564.12A10.29,10.29,0,1,0,579,553.83,10.29,10.29,0,0,0,589.27,564.12Z"/><line class="cls-15" x1="751.86" y1="410.77" x2="547.99" y2="382.86"/><line class="cls-15" x1="611.81" y1="468.24" x2="534.78" y2="428.5"/><line class="cls-15" x1="746.49" y1="295.93" x2="546.53" y2="336.54"/><path class="cls-17" d="M751.86,421.06a10.29,10.29,0,1,0-10.29-10.29,10.29,10.29,0,0,0,10.29,10.29"/><circle class="cls-18" cx="751.86" cy="410.77" r="10.29" transform="translate(-103.66 456.62) rotate(-31.72)"/><path class="cls-17" d="M746.49,306.22a10.29,10.29,0,1,0-10.29-10.29,10.29,10.29,0,0,0,10.29,10.29"/><circle class="cls-18" cx="746.49" cy="295.93" r="10.29" transform="translate(-44.09 436.65) rotate(-31.72)"/><path class="cls-22" d="M409.64,496.78A132.86,132.86,0,1,0,276.79,363.92,132.86,132.86,0,0,0,409.64,496.78"/><circle class="cls-23" cx="409.64" cy="363.92" r="136.92"/><circle class="cls-24" cx="409.64" cy="363.92" r="126.09"/><text class="cls-25" transform="translate(324.83 353.55)">Jurong La<tspan class="cls-26" x="136.84" y="0">k</tspan><tspan x="152.93" y="0">e </tspan></text><text class="cls-25" transform="translate(358.35 392.52)">District</text></g></g></svg>